<svg width="54" height="52" viewBox="0 0 54 52" fill="none" xmlns="http://www.w3.org/2000/svg">
<circle r="3" transform="matrix(0 -1 -1 0 15 49)" fill="#1178FF"/>
<circle r="3" transform="matrix(0 -1 -1 0 3 49)" fill="#1178FF"/>
<circle r="3" transform="matrix(0 -1 -1 0 27 49)" fill="#1178FF"/>
<circle r="3" transform="matrix(0 -1 -1 0 39 49)" fill="#1178FF"/>
<circle r="3" transform="matrix(0 -1 -1 0 39 37)" fill="#1178FF"/>
<circle r="3" transform="matrix(0 -1 -1 0 51 49)" fill="#1178FF"/>
<circle r="3" transform="matrix(0 -1 -1 0 51 37)" fill="#1178FF"/>
<circle r="3" transform="matrix(0 -1 -1 0 27 37)" fill="#1178FF"/>
<circle r="3" transform="matrix(0 -1 -1 0 15 37)" fill="#1178FF"/>
<circle r="3" transform="matrix(0 -1 -1 0 3 37)" fill="#1178FF"/>
<circle r="3" transform="matrix(0 -1 -1 0 27 26)" fill="#1178FF"/>
<circle r="3" transform="matrix(0 -1 -1 0 27 15)" fill="#1178FF"/>
<circle r="3" transform="matrix(0 -1 -1 0 27 3)" fill="#1178FF"/>
<circle r="3" transform="matrix(0 -1 -1 0 15 26)" fill="#1178FF"/>
<circle r="3" transform="matrix(0 -1 -1 0 3 26)" fill="#1178FF"/>
<circle r="3" transform="matrix(0 -1 -1 0 39 26)" fill="#1178FF"/>
<circle r="3" transform="matrix(0 -1 -1 0 39 15)" fill="#1178FF"/>
<circle r="3" transform="matrix(0 -1 -1 0 39 3)" fill="#1178FF"/>
<circle r="3" transform="matrix(0 -1 -1 0 51 26)" fill="#1178FF"/>
<circle r="3" transform="matrix(0 -1 -1 0 51 15)" fill="#1178FF"/>
<circle r="3" transform="matrix(0 -1 -1 0 51 3)" fill="#1178FF"/>
</svg>
