<svg width="54" height="52" viewBox="0 0 54 52" fill="none" xmlns="http://www.w3.org/2000/svg">
<circle cx="39" cy="49" r="3" transform="rotate(-90 39 49)" fill="#1178FF"/>
<circle cx="51" cy="49" r="3" transform="rotate(-90 51 49)" fill="#1178FF"/>
<circle cx="27" cy="49" r="3" transform="rotate(-90 27 49)" fill="#1178FF"/>
<circle cx="15" cy="49" r="3" transform="rotate(-90 15 49)" fill="#1178FF"/>
<circle cx="15" cy="37" r="3" transform="rotate(-90 15 37)" fill="#1178FF"/>
<circle cx="3" cy="49" r="3" transform="rotate(-90 3 49)" fill="#1178FF"/>
<circle cx="3" cy="37" r="3" transform="rotate(-90 3 37)" fill="#1178FF"/>
<circle cx="27" cy="37" r="3" transform="rotate(-90 27 37)" fill="#1178FF"/>
<circle cx="39" cy="37" r="3" transform="rotate(-90 39 37)" fill="#1178FF"/>
<circle cx="51" cy="37" r="3" transform="rotate(-90 51 37)" fill="#1178FF"/>
<circle cx="27" cy="26" r="3" transform="rotate(-90 27 26)" fill="#1178FF"/>
<circle cx="27" cy="15" r="3" transform="rotate(-90 27 15)" fill="#1178FF"/>
<circle cx="27" cy="3" r="3" transform="rotate(-90 27 3)" fill="#1178FF"/>
<circle cx="39" cy="26" r="3" transform="rotate(-90 39 26)" fill="#1178FF"/>
<circle cx="51" cy="26" r="3" transform="rotate(-90 51 26)" fill="#1178FF"/>
<circle cx="15" cy="26" r="3" transform="rotate(-90 15 26)" fill="#1178FF"/>
<circle cx="15" cy="15" r="3" transform="rotate(-90 15 15)" fill="#1178FF"/>
<circle cx="15" cy="3" r="3" transform="rotate(-90 15 3)" fill="#1178FF"/>
<circle cx="3" cy="26" r="3" transform="rotate(-90 3 26)" fill="#1178FF"/>
<circle cx="3" cy="15" r="3" transform="rotate(-90 3 15)" fill="#1178FF"/>
<circle cx="3" cy="3" r="3" transform="rotate(-90 3 3)" fill="#1178FF"/>
</svg>
